<svg width="216" height="296" viewBox="0 0 216 296" fill="none" xmlns="http://www.w3.org/2000/svg">
<g filter="url(#filter0_d_1502_24943)">
<g clip-path="url(#clip0_1502_24943)">
<rect x="12" y="12" width="184" height="264" rx="12.1739" fill="#667CFE"/>
<path d="M286 -39.6992C286 -40.2498 285.703 -40.7575 285.222 -41.0267L193.217 -92.5852C192.757 -92.8431 192.196 -92.8443 191.735 -92.5884L98.7836 -41.0255C98.3 -40.7572 98 -40.2477 98 -39.6948V62.985C98 63.5199 98.2808 64.0155 98.7397 64.2904L245.136 152V100.32L142.662 41.4232C142.19 41.1517 141.898 40.6485 141.898 40.1038V-16.9312C141.898 -17.4744 142.188 -17.9765 142.658 -18.2484L191.755 -46.6449C192.205 -46.905 192.756 -46.9177 193.218 -46.6785L244.37 -20.1493C244.875 -19.8875 245.192 -19.3659 245.191 -18.7971L245.137 40.4706C245.137 40.9079 244.948 41.3239 244.62 41.6125L211.563 70.6523L245.919 91.707L285.448 58.9944C285.798 58.7053 286 58.2755 286 57.822V-39.6992Z" fill="url(#paint0_linear_1502_24943)"/>
<path d="M79 -3.909C79 -4.46181 78.7002 -4.97115 78.2169 -5.23947L-14.2854 -56.592C-14.7428 -56.8459 -15.2985 -56.8471 -15.7569 -56.5952L-109.211 -5.23822C-109.698 -4.97085 -110 -4.45975 -110 -3.90459V98.3406C-110 98.8777 -109.717 99.3751 -109.255 99.6492L37.9189 187V135.531L-65.0992 76.8752C-65.5745 76.6046 -65.868 76.0997 -65.868 75.5528V18.7661C-65.868 18.2206 -65.5761 17.7169 -65.1028 17.4457L-15.7373 -10.8392C-15.2901 -11.0954 -14.7437 -11.1079 -14.2853 -10.8724L37.1476 15.5529C37.6554 15.8138 37.9745 16.337 37.9739 16.9079L37.9196 75.9188C37.9192 76.3585 37.7285 76.7766 37.3968 77.0653L4.16752 105.984L38.7056 126.953L78.443 94.376C78.7956 94.087 79 93.6551 79 93.1992V-3.909Z" fill="url(#paint1_linear_1502_24943)"/>
<path d="M267 187.089C267 186.537 266.702 186.029 266.22 185.76L174.215 134.412C173.756 134.156 173.198 134.154 172.738 134.409L79.7859 185.761C79.301 186.029 79 186.539 79 187.093V289.343C79 289.879 79.2818 290.375 79.742 290.65L226.136 378V326.531L123.664 267.876C123.191 267.605 122.898 267.101 122.898 266.555V209.764C122.898 209.22 123.189 208.717 123.661 208.445L172.757 180.165C173.206 179.906 173.755 179.894 174.215 180.131L225.368 206.552C225.874 206.814 226.192 207.336 226.191 207.906L226.137 266.921C226.137 267.36 225.947 267.776 225.617 268.065L192.563 296.984L226.919 317.953L266.446 285.376C266.797 285.087 267 284.656 267 284.202V187.089Z" fill="url(#paint2_linear_1502_24943)"/>
<path d="M62 227.301C62 226.75 61.7025 226.243 61.2222 225.973L-30.7827 174.415C-31.2428 174.157 -31.8036 174.156 -32.2648 174.412L-125.216 225.975C-125.7 226.243 -126 226.752 -126 227.305V329.985C-126 330.52 -125.719 331.015 -125.26 331.29L21.1363 419V367.32L-81.3381 308.423C-81.8103 308.152 -82.1015 307.649 -82.1015 307.104V250.069C-82.1015 249.526 -81.8119 249.024 -81.3417 248.752L-32.2449 220.355C-31.7951 220.095 -31.2436 220.082 -30.7824 220.322L20.3699 246.851C20.8748 247.113 21.1915 247.634 21.191 248.203L21.1369 307.471C21.1365 307.908 20.948 308.324 20.6195 308.612L-12.4365 337.652L21.9188 358.707L61.4485 325.994C61.7978 325.705 62 325.275 62 324.822V227.301Z" fill="url(#paint3_linear_1502_24943)"/>
<path fill-rule="evenodd" clip-rule="evenodd" d="M44.5006 56.8656H38.9618L34.8084 40.554C34.6113 39.8037 34.1927 39.1403 33.577 38.8277C32.0404 38.042 30.3472 37.4168 28.5 37.1014V36.4734H37.4225C38.654 36.4734 39.5776 37.4168 39.7315 38.5123L41.8865 50.2784L47.4226 36.4734H52.8075L44.5006 56.8656ZM55.8851 56.8656H50.6542L54.9616 36.4734H60.1925L55.8851 56.8656ZM66.9623 42.1195C67.1162 41.0212 68.0398 40.3932 69.1173 40.3932C70.8106 40.2356 72.655 40.5509 74.1943 41.3339L75.1179 36.9434C73.5786 36.3154 71.8854 36 70.3488 36C65.2718 36 61.5775 38.8246 61.5775 42.7448C61.5775 45.7271 64.1943 47.293 66.0414 48.2364C68.0398 49.177 68.8095 49.805 68.6555 50.7456C68.6555 52.1566 67.1162 52.7846 65.5796 52.7846C63.7325 52.7846 61.8853 52.3143 60.1948 51.5286L59.2712 55.9218C61.1184 56.7048 63.1168 57.0201 64.9639 57.0201C70.6566 57.1751 74.1943 54.3532 74.1943 50.1176C74.1943 44.7838 66.9623 44.4711 66.9623 42.1195ZM92.498 56.8656L88.3445 36.4734H83.8833C82.9597 36.4734 82.0361 37.1014 81.7282 38.042L74.0371 56.8656H79.422L80.4968 53.886H87.1131L87.7288 56.8656H92.498ZM84.6536 41.9628L86.1902 49.6482H81.8829L84.6536 41.9628Z" fill="white"/>
</g>
</g>
<defs>
<filter id="filter0_d_1502_24943" x="0" y="0" width="216" height="296" filterUnits="userSpaceOnUse" color-interpolation-filters="sRGB">
<feFlood flood-opacity="0" result="BackgroundImageFix"/>
<feColorMatrix in="SourceAlpha" type="matrix" values="0 0 0 0 0 0 0 0 0 0 0 0 0 0 0 0 0 0 127 0" result="hardAlpha"/>
<feOffset dx="4" dy="4"/>
<feGaussianBlur stdDeviation="8"/>
<feComposite in2="hardAlpha" operator="out"/>
<feColorMatrix type="matrix" values="0 0 0 0 0.311719 0 0 0 0 0.324297 0 0 0 0 0.4375 0 0 0 0.23 0"/>
<feBlend mode="normal" in2="BackgroundImageFix" result="effect1_dropShadow_1502_24943"/>
<feBlend mode="normal" in="SourceGraphic" in2="effect1_dropShadow_1502_24943" result="shape"/>
</filter>
<linearGradient id="paint0_linear_1502_24943" x1="187.811" y1="-111.291" x2="191.844" y2="136.729" gradientUnits="userSpaceOnUse">
<stop stop-color="#596EEF"/>
<stop offset="1" stop-color="#596EEF" stop-opacity="0"/>
</linearGradient>
<linearGradient id="paint1_linear_1502_24943" x1="-15.5" y1="-57" x2="-15.5" y2="187" gradientUnits="userSpaceOnUse">
<stop stop-color="#596EEF"/>
<stop offset="1" stop-color="#596EEF" stop-opacity="0"/>
</linearGradient>
<linearGradient id="paint2_linear_1502_24943" x1="173" y1="134" x2="173" y2="378" gradientUnits="userSpaceOnUse">
<stop stop-color="#596EEF" stop-opacity="0"/>
<stop offset="1" stop-color="#596EEF"/>
</linearGradient>
<linearGradient id="paint3_linear_1502_24943" x1="-32" y1="174" x2="-32" y2="419" gradientUnits="userSpaceOnUse">
<stop stop-color="#596EEF" stop-opacity="0"/>
<stop offset="1" stop-color="#596EEF"/>
</linearGradient>
<clipPath id="clip0_1502_24943">
<rect x="12" y="12" width="184" height="264" rx="12.1739" fill="white"/>
</clipPath>
</defs>
</svg>
