<svg width="217" height="296" viewBox="0 0 217 296" fill="none" xmlns="http://www.w3.org/2000/svg">
<g filter="url(#filter0_d_282_13249)">
<g clip-path="url(#clip0_282_13249)">
<rect x="12.5" y="12" width="184" height="264" rx="12.1739" fill="#FFFFFF"/>
<rect width="185" height="32" transform="translate(12 196)" fill="#D1D1D1"/>
<path d="M25.692 216C25.604 215.824 25.496 215.628 25.368 215.412C25.24 215.196 25.1 214.976 24.948 214.752C24.796 214.52 24.64 214.292 24.48 214.068C24.32 213.844 24.164 213.632 24.012 213.432C23.86 213.632 23.704 213.848 23.544 214.08C23.384 214.304 23.228 214.532 23.076 214.764C22.932 214.988 22.796 215.208 22.668 215.424C22.54 215.64 22.432 215.832 22.344 216H21.192C21.472 215.456 21.804 214.904 22.188 214.344C22.58 213.776 22.968 213.236 23.352 212.724L21.288 209.76H22.548L24.036 211.944L25.536 209.76H26.724L24.708 212.652C25.092 213.172 25.484 213.724 25.884 214.308C26.292 214.884 26.636 215.448 26.916 216H25.692ZM31.9001 216C31.8121 215.824 31.7041 215.628 31.5761 215.412C31.4481 215.196 31.3081 214.976 31.1561 214.752C31.0041 214.52 30.8481 214.292 30.6881 214.068C30.5281 213.844 30.3721 213.632 30.2201 213.432C30.0681 213.632 29.9121 213.848 29.7521 214.08C29.5921 214.304 29.4361 214.532 29.2841 214.764C29.1401 214.988 29.0041 215.208 28.8761 215.424C28.7481 215.64 28.6401 215.832 28.5521 216H27.4001C27.6801 215.456 28.0121 214.904 28.3961 214.344C28.7881 213.776 29.1761 213.236 29.5601 212.724L27.4961 209.76H28.7561L30.2441 211.944L31.7441 209.76H32.9321L30.9161 212.652C31.3001 213.172 31.6921 213.724 32.0921 214.308C32.5001 214.884 32.8441 215.448 33.1241 216H31.9001ZM38.1083 216C38.0203 215.824 37.9123 215.628 37.7843 215.412C37.6563 215.196 37.5163 214.976 37.3643 214.752C37.2123 214.52 37.0563 214.292 36.8963 214.068C36.7363 213.844 36.5803 213.632 36.4283 213.432C36.2763 213.632 36.1203 213.848 35.9603 214.08C35.8003 214.304 35.6443 214.532 35.4923 214.764C35.3483 214.988 35.2123 215.208 35.0843 215.424C34.9563 215.64 34.8483 215.832 34.7603 216H33.6083C33.8883 215.456 34.2203 214.904 34.6043 214.344C34.9963 213.776 35.3843 213.236 35.7683 212.724L33.7043 209.76H34.9643L36.4523 211.944L37.9523 209.76H39.1403L37.1243 212.652C37.5083 213.172 37.9003 213.724 38.3003 214.308C38.7083 214.884 39.0523 215.448 39.3323 216H38.1083ZM44.3164 216C44.2284 215.824 44.1204 215.628 43.9924 215.412C43.8644 215.196 43.7244 214.976 43.5724 214.752C43.4204 214.52 43.2644 214.292 43.1044 214.068C42.9444 213.844 42.7884 213.632 42.6364 213.432C42.4844 213.632 42.3284 213.848 42.1684 214.08C42.0084 214.304 41.8524 214.532 41.7004 214.764C41.5564 214.988 41.4204 215.208 41.2924 215.424C41.1644 215.64 41.0564 215.832 40.9684 216H39.8164C40.0964 215.456 40.4284 214.904 40.8124 214.344C41.2044 213.776 41.5924 213.236 41.9764 212.724L39.9124 209.76H41.1724L42.6604 211.944L44.1604 209.76H45.3484L43.3324 212.652C43.7164 213.172 44.1084 213.724 44.5084 214.308C44.9164 214.884 45.2604 215.448 45.5404 216H44.3164ZM50.5245 216C50.4365 215.824 50.3285 215.628 50.2005 215.412C50.0725 215.196 49.9325 214.976 49.7805 214.752C49.6285 214.52 49.4725 214.292 49.3125 214.068C49.1525 213.844 48.9965 213.632 48.8445 213.432C48.6925 213.632 48.5365 213.848 48.3765 214.08C48.2165 214.304 48.0605 214.532 47.9085 214.764C47.7645 214.988 47.6285 215.208 47.5005 215.424C47.3725 215.64 47.2645 215.832 47.1765 216H46.0245C46.3045 215.456 46.6365 214.904 47.0205 214.344C47.4125 213.776 47.8005 213.236 48.1845 212.724L46.1205 209.76H47.3805L48.8685 211.944L50.3685 209.76H51.5565L49.5405 212.652C49.9245 213.172 50.3165 213.724 50.7165 214.308C51.1245 214.884 51.4685 215.448 51.7485 216H50.5245ZM56.7326 216C56.6446 215.824 56.5366 215.628 56.4086 215.412C56.2806 215.196 56.1406 214.976 55.9886 214.752C55.8366 214.52 55.6806 214.292 55.5206 214.068C55.3606 213.844 55.2046 213.632 55.0526 213.432C54.9006 213.632 54.7446 213.848 54.5846 214.08C54.4246 214.304 54.2686 214.532 54.1166 214.764C53.9726 214.988 53.8366 215.208 53.7086 215.424C53.5806 215.64 53.4726 215.832 53.3846 216H52.2326C52.5126 215.456 52.8446 214.904 53.2286 214.344C53.6206 213.776 54.0086 213.236 54.3926 212.724L52.3286 209.76H53.5886L55.0766 211.944L56.5766 209.76H57.7646L55.7486 212.652C56.1326 213.172 56.5246 213.724 56.9246 214.308C57.3326 214.884 57.6766 215.448 57.9566 216H56.7326ZM62.9407 216C62.8527 215.824 62.7447 215.628 62.6167 215.412C62.4887 215.196 62.3487 214.976 62.1967 214.752C62.0447 214.52 61.8887 214.292 61.7287 214.068C61.5687 213.844 61.4127 213.632 61.2607 213.432C61.1087 213.632 60.9527 213.848 60.7927 214.08C60.6327 214.304 60.4767 214.532 60.3247 214.764C60.1807 214.988 60.0447 215.208 59.9167 215.424C59.7887 215.64 59.6807 215.832 59.5927 216H58.4407C58.7207 215.456 59.0527 214.904 59.4367 214.344C59.8287 213.776 60.2167 213.236 60.6007 212.724L58.5367 209.76H59.7967L61.2847 211.944L62.7847 209.76H63.9727L61.9567 212.652C62.3407 213.172 62.7327 213.724 63.1327 214.308C63.5407 214.884 63.8847 215.448 64.1647 216H62.9407ZM69.1489 216C69.0609 215.824 68.9529 215.628 68.8249 215.412C68.6969 215.196 68.5569 214.976 68.4049 214.752C68.2529 214.52 68.0969 214.292 67.9369 214.068C67.7769 213.844 67.6209 213.632 67.4689 213.432C67.3169 213.632 67.1609 213.848 67.0009 214.08C66.8409 214.304 66.6849 214.532 66.5329 214.764C66.3889 214.988 66.2529 215.208 66.1249 215.424C65.9969 215.64 65.8889 215.832 65.8009 216H64.6489C64.9289 215.456 65.2609 214.904 65.6449 214.344C66.0369 213.776 66.4249 213.236 66.8089 212.724L64.7449 209.76H66.0049L67.4929 211.944L68.9929 209.76H70.1809L68.1649 212.652C68.5489 213.172 68.9409 213.724 69.3409 214.308C69.7489 214.884 70.0929 215.448 70.3729 216H69.1489ZM75.357 216C75.269 215.824 75.161 215.628 75.033 215.412C74.905 215.196 74.765 214.976 74.613 214.752C74.461 214.52 74.305 214.292 74.145 214.068C73.985 213.844 73.829 213.632 73.677 213.432C73.525 213.632 73.369 213.848 73.209 214.08C73.049 214.304 72.893 214.532 72.741 214.764C72.597 214.988 72.461 215.208 72.333 215.424C72.205 215.64 72.097 215.832 72.009 216H70.857C71.137 215.456 71.469 214.904 71.853 214.344C72.245 213.776 72.633 213.236 73.017 212.724L70.953 209.76H72.213L73.701 211.944L75.201 209.76H76.389L74.373 212.652C74.757 213.172 75.149 213.724 75.549 214.308C75.957 214.884 76.301 215.448 76.581 216H75.357ZM81.5651 216C81.4771 215.824 81.3691 215.628 81.2411 215.412C81.1131 215.196 80.9731 214.976 80.8211 214.752C80.6691 214.52 80.5131 214.292 80.3531 214.068C80.1931 213.844 80.0371 213.632 79.8851 213.432C79.7331 213.632 79.5771 213.848 79.4171 214.08C79.2571 214.304 79.1011 214.532 78.9491 214.764C78.8051 214.988 78.6691 215.208 78.5411 215.424C78.4131 215.64 78.3051 215.832 78.2171 216H77.0651C77.3451 215.456 77.6771 214.904 78.0611 214.344C78.4531 213.776 78.8411 213.236 79.2251 212.724L77.1611 209.76H78.4211L79.9091 211.944L81.4091 209.76H82.5971L80.5811 212.652C80.9651 213.172 81.3571 213.724 81.7571 214.308C82.1651 214.884 82.5091 215.448 82.7891 216H81.5651Z" fill="#B6B6B6"/>
<!-- <path d="M29.8658 253.919C29.2418 253.919 28.6818 253.823 28.1858 253.631C27.6898 253.439 27.2698 253.159 26.9258 252.791C26.5818 252.415 26.3178 251.959 26.1338 251.423C25.9498 250.887 25.8578 250.271 25.8578 249.575C25.8578 248.879 25.9618 248.263 26.1698 247.727C26.3858 247.191 26.6778 246.739 27.0458 246.371C27.4138 245.995 27.8458 245.711 28.3418 245.519C28.8378 245.327 29.3698 245.231 29.9378 245.231C30.2818 245.231 30.5938 245.259 30.8738 245.315C31.1538 245.363 31.3978 245.419 31.6058 245.483C31.8138 245.547 31.9858 245.615 32.1218 245.687C32.2578 245.759 32.3538 245.811 32.4098 245.843L31.9658 247.079C31.7738 246.959 31.4978 246.847 31.1378 246.743C30.7858 246.631 30.4018 246.575 29.9858 246.575C29.6258 246.575 29.2898 246.639 28.9778 246.767C28.6658 246.887 28.3938 247.071 28.1618 247.319C27.9378 247.567 27.7618 247.879 27.6338 248.255C27.5058 248.631 27.4418 249.067 27.4418 249.563C27.4418 250.003 27.4898 250.407 27.5858 250.775C27.6898 251.143 27.8458 251.463 28.0538 251.735C28.2618 251.999 28.5258 252.207 28.8458 252.359C29.1658 252.503 29.5498 252.575 29.9978 252.575C30.5338 252.575 30.9698 252.523 31.3058 252.419C31.6418 252.307 31.9018 252.203 32.0858 252.107L32.4938 253.343C32.3978 253.407 32.2658 253.471 32.0978 253.535C31.9378 253.599 31.7458 253.663 31.5218 253.727C31.2978 253.783 31.0458 253.827 30.7658 253.859C30.4858 253.899 30.1858 253.919 29.8658 253.919ZM36.374 253.739C35.774 252.443 35.194 251.087 34.634 249.671C34.082 248.255 33.566 246.839 33.086 245.423H34.754C34.946 245.983 35.142 246.555 35.342 247.139C35.542 247.723 35.742 248.299 35.942 248.867C36.142 249.427 36.342 249.971 36.542 250.499C36.742 251.027 36.938 251.511 37.13 251.951C37.314 251.511 37.506 251.031 37.706 250.511C37.906 249.983 38.106 249.435 38.306 248.867C38.514 248.299 38.718 247.723 38.918 247.139C39.118 246.555 39.31 245.983 39.494 245.423H41.114C40.626 246.839 40.106 248.255 39.554 249.671C39.002 251.087 38.426 252.443 37.826 253.739H36.374ZM44.8935 253.739C44.2935 252.443 43.7135 251.087 43.1535 249.671C42.6015 248.255 42.0855 246.839 41.6055 245.423H43.2735C43.4655 245.983 43.6615 246.555 43.8615 247.139C44.0615 247.723 44.2615 248.299 44.4615 248.867C44.6615 249.427 44.8615 249.971 45.0615 250.499C45.2615 251.027 45.4575 251.511 45.6495 251.951C45.8335 251.511 46.0255 251.031 46.2255 250.511C46.4255 249.983 46.6255 249.435 46.8255 248.867C47.0335 248.299 47.2375 247.723 47.4375 247.139C47.6375 246.555 47.8295 245.983 48.0135 245.423H49.6335C49.1455 246.839 48.6255 248.255 48.0735 249.671C47.5215 251.087 46.9455 252.443 46.3455 253.739H44.8935Z" fill="#C0C9FF"/> -->
</g>
</g>
<defs>
<filter id="filter0_d_282_13249" x="0.5" y="0" width="216" height="296" filterUnits="userSpaceOnUse" color-interpolation-filters="sRGB">
<feFlood flood-opacity="0" result="BackgroundImageFix"/>
<feColorMatrix in="SourceAlpha" type="matrix" values="0 0 0 0 0 0 0 0 0 0 0 0 0 0 0 0 0 0 127 0" result="hardAlpha"/>
<feOffset dx="4" dy="4"/>
<feGaussianBlur stdDeviation="8"/>
<feComposite in2="hardAlpha" operator="out"/>
<feColorMatrix type="matrix" values="0 0 0 0 0.311719 0 0 0 0 0.324297 0 0 0 0 0.4375 0 0 0 0.23 0"/>
<feBlend mode="normal" in2="BackgroundImageFix" result="effect1_dropShadow_282_13249"/>
<feBlend mode="normal" in="SourceGraphic" in2="effect1_dropShadow_282_13249" result="shape"/>
</filter>
<clipPath id="clip0_282_13249">
<rect x="12.5" y="12" width="184" height="264" rx="12.1739" fill="white"/>
</clipPath>
</defs>
</svg>
