<svg width="217" height="296" viewBox="0 0 217 296" fill="none" xmlns="http://www.w3.org/2000/svg">
<g filter="url(#filter0_d_282_11522)">
<g clip-path="url(#clip0_282_11522)">
<rect x="12.5" y="12" width="184" height="264" rx="12.1739" fill="white"/>
<path d="M286.5 -39.6992C286.5 -40.2498 286.203 -40.7575 285.722 -41.0267L193.717 -92.5852C193.257 -92.8431 192.696 -92.8443 192.235 -92.5884L99.2836 -41.0255C98.8 -40.7572 98.5 -40.2477 98.5 -39.6948V62.985C98.5 63.5199 98.7808 64.0155 99.2397 64.2904L245.636 152V100.32L143.162 41.4232C142.69 41.1517 142.398 40.6485 142.398 40.1038V-16.9312C142.398 -17.4744 142.688 -17.9765 143.158 -18.2484L192.255 -46.6449C192.705 -46.905 193.256 -46.9177 193.718 -46.6785L244.87 -20.1493C245.375 -19.8875 245.692 -19.3659 245.691 -18.7971L245.637 40.4706C245.637 40.9079 245.448 41.3239 245.12 41.6125L212.063 70.6523L246.419 91.707L285.948 58.9944C286.298 58.7053 286.5 58.2755 286.5 57.822V-39.6992Z" fill="url(#paint0_linear_282_11522)"/>
<path d="M79.5 -3.909C79.5 -4.46182 79.2002 -4.97115 78.7169 -5.23947L-13.7854 -56.592C-14.2428 -56.8459 -14.7985 -56.8471 -15.2569 -56.5952L-108.711 -5.23822C-109.198 -4.97085 -109.5 -4.45975 -109.5 -3.90459V98.3406C-109.5 98.8777 -109.217 99.3751 -108.755 99.6492L38.4189 187V135.531L-64.5992 76.8752C-65.0745 76.6046 -65.368 76.0997 -65.368 75.5528V18.7661C-65.368 18.2206 -65.0761 17.7169 -64.6028 17.4457L-15.2373 -10.8392C-14.7901 -11.0954 -14.2437 -11.1079 -13.7853 -10.8724L37.6476 15.5529C38.1554 15.8138 38.4745 16.337 38.4739 16.9078L38.4196 75.9188C38.4192 76.3585 38.2285 76.7766 37.8968 77.0653L4.66752 105.984L39.2056 126.953L78.943 94.376C79.2956 94.087 79.5 93.6551 79.5 93.1992V-3.909Z" fill="url(#paint1_linear_282_11522)"/>
<path d="M267.5 187.089C267.5 186.537 267.202 186.029 266.72 185.76L174.715 134.412C174.256 134.156 173.698 134.154 173.238 134.409L80.2859 185.761C79.801 186.029 79.5 186.539 79.5 187.093V289.343C79.5 289.879 79.7818 290.375 80.242 290.65L226.636 378V326.531L124.164 267.876C123.691 267.605 123.398 267.101 123.398 266.555V209.764C123.398 209.22 123.689 208.717 124.161 208.445L173.257 180.165C173.706 179.906 174.255 179.894 174.715 180.131L225.868 206.552C226.374 206.814 226.692 207.336 226.691 207.906L226.637 266.921C226.637 267.36 226.447 267.776 226.117 268.065L193.063 296.984L227.419 317.953L266.946 285.376C267.297 285.087 267.5 284.656 267.5 284.202V187.089Z" fill="url(#paint2_linear_282_11522)"/>
<path d="M62.5 227.301C62.5 226.75 62.2025 226.243 61.7222 225.973L-30.2827 174.415C-30.7428 174.157 -31.3036 174.156 -31.7648 174.412L-124.716 225.975C-125.2 226.243 -125.5 226.752 -125.5 227.305V329.985C-125.5 330.52 -125.219 331.015 -124.76 331.29L21.6363 419V367.32L-80.8381 308.423C-81.3103 308.152 -81.6015 307.649 -81.6015 307.104V250.069C-81.6015 249.526 -81.3119 249.024 -80.8417 248.752L-31.7449 220.355C-31.2951 220.095 -30.7436 220.082 -30.2824 220.322L20.8699 246.851C21.3748 247.113 21.6915 247.634 21.691 248.203L21.6369 307.471C21.6365 307.908 21.448 308.324 21.1195 308.612L-11.9365 337.652L22.4188 358.707L61.9485 325.994C62.2978 325.705 62.5 325.275 62.5 324.822V227.301Z" fill="url(#paint3_linear_282_11522)"/>
<path d="M57.1738 39.6222C57.1738 39.2577 56.9756 38.9222 56.6564 38.7463L41.7352 30.5254C41.4361 30.3606 41.0736 30.3598 40.7738 30.5233L25.695 38.7471C25.3737 38.9224 25.1738 39.2591 25.1738 39.6251V55.9372C25.1738 56.2914 25.3611 56.6191 25.6663 56.7988L50.2183 71.2609V62.6124L33.1539 52.9698C32.84 52.7924 32.6459 52.4598 32.6459 52.0992V43.4256C32.6459 43.066 32.839 42.7341 33.1516 42.5563L40.7866 38.2148C41.079 38.0485 41.4355 38.0404 41.7351 38.1932L49.6814 42.245C50.0167 42.4159 50.2275 42.7605 50.2272 43.1368L50.2187 52.2548C50.2185 52.5451 50.0921 52.8209 49.8724 53.0107L44.5038 57.6476L50.3515 61.171L56.8049 55.9204C57.0383 55.7305 57.1738 55.4456 57.1738 55.1447V39.6222Z" fill="url(#paint4_linear_282_11522)"/>
</g>
</g>
<defs>
<filter id="filter0_d_282_11522" x="0.5" y="0" width="216" height="296" filterUnits="userSpaceOnUse" color-interpolation-filters="sRGB">
<feFlood flood-opacity="0" result="BackgroundImageFix"/>
<feColorMatrix in="SourceAlpha" type="matrix" values="0 0 0 0 0 0 0 0 0 0 0 0 0 0 0 0 0 0 127 0" result="hardAlpha"/>
<feOffset dx="4" dy="4"/>
<feGaussianBlur stdDeviation="8"/>
<feComposite in2="hardAlpha" operator="out"/>
<feColorMatrix type="matrix" values="0 0 0 0 0.311719 0 0 0 0 0.324297 0 0 0 0 0.4375 0 0 0 0.23 0"/>
<feBlend mode="normal" in2="BackgroundImageFix" result="effect1_dropShadow_282_11522"/>
<feBlend mode="normal" in="SourceGraphic" in2="effect1_dropShadow_282_11522" result="shape"/>
</filter>
<linearGradient id="paint0_linear_282_11522" x1="188.311" y1="-111.291" x2="192.344" y2="136.729" gradientUnits="userSpaceOnUse">
<stop stop-color="#F4F4F4"/>
<stop offset="1" stop-color="#F4F4F4" stop-opacity="0"/>
</linearGradient>
<linearGradient id="paint1_linear_282_11522" x1="-15" y1="-57" x2="-15" y2="187" gradientUnits="userSpaceOnUse">
<stop stop-color="#F4F4F4"/>
<stop offset="1" stop-color="#F4F4F4" stop-opacity="0"/>
</linearGradient>
<linearGradient id="paint2_linear_282_11522" x1="173.5" y1="134" x2="173.5" y2="378" gradientUnits="userSpaceOnUse">
<stop stop-color="#F4F4F4" stop-opacity="0"/>
<stop offset="1" stop-color="#F4F4F4"/>
</linearGradient>
<linearGradient id="paint3_linear_282_11522" x1="-31.5" y1="174" x2="-31.5" y2="419" gradientUnits="userSpaceOnUse">
<stop stop-color="#F4F4F4" stop-opacity="0"/>
<stop offset="1" stop-color="#F4F4F4"/>
</linearGradient>
<linearGradient id="paint4_linear_282_11522" x1="31.3464" y1="35.3859" x2="49.7747" y2="70.9948" gradientUnits="userSpaceOnUse">
<stop stop-color="#E15B30"/>
<stop offset="0.441777" stop-color="#F2BA5A"/>
<stop offset="1" stop-color="#FF3C11"/>
</linearGradient>
<clipPath id="clip0_282_11522">
<rect x="12.5" y="12" width="184" height="264" rx="12.1739" fill="white"/>
</clipPath>
</defs>
</svg>
