<svg width="216" height="296" viewBox="0 0 216 296" fill="none" xmlns="http://www.w3.org/2000/svg">
<g filter="url(#filter0_d_1505_25835)">
<g clip-path="url(#clip0_1505_25835)">
<rect x="12" y="12" width="184" height="264" rx="12.1739" fill="#8C3100"/>
<rect width="185" height="32" transform="translate(11.5 196)" fill="#D1D1D1"/>
<path d="M25.192 216C25.104 215.824 24.996 215.628 24.868 215.412C24.74 215.196 24.6 214.976 24.448 214.752C24.296 214.52 24.14 214.292 23.98 214.068C23.82 213.844 23.664 213.632 23.512 213.432C23.36 213.632 23.204 213.848 23.044 214.08C22.884 214.304 22.728 214.532 22.576 214.764C22.432 214.988 22.296 215.208 22.168 215.424C22.04 215.64 21.932 215.832 21.844 216H20.692C20.972 215.456 21.304 214.904 21.688 214.344C22.08 213.776 22.468 213.236 22.852 212.724L20.788 209.76H22.048L23.536 211.944L25.036 209.76H26.224L24.208 212.652C24.592 213.172 24.984 213.724 25.384 214.308C25.792 214.884 26.136 215.448 26.416 216H25.192ZM31.4001 216C31.3121 215.824 31.2041 215.628 31.0761 215.412C30.9481 215.196 30.8081 214.976 30.6561 214.752C30.5041 214.52 30.3481 214.292 30.1881 214.068C30.0281 213.844 29.8721 213.632 29.7201 213.432C29.5681 213.632 29.4121 213.848 29.2521 214.08C29.0921 214.304 28.9361 214.532 28.7841 214.764C28.6401 214.988 28.5041 215.208 28.3761 215.424C28.2481 215.64 28.1401 215.832 28.0521 216H26.9001C27.1801 215.456 27.5121 214.904 27.8961 214.344C28.2881 213.776 28.6761 213.236 29.0601 212.724L26.9961 209.76H28.2561L29.7441 211.944L31.2441 209.76H32.4321L30.4161 212.652C30.8001 213.172 31.1921 213.724 31.5921 214.308C32.0001 214.884 32.3441 215.448 32.6241 216H31.4001ZM37.6083 216C37.5203 215.824 37.4123 215.628 37.2843 215.412C37.1563 215.196 37.0163 214.976 36.8643 214.752C36.7123 214.52 36.5563 214.292 36.3963 214.068C36.2363 213.844 36.0803 213.632 35.9283 213.432C35.7763 213.632 35.6203 213.848 35.4603 214.08C35.3003 214.304 35.1443 214.532 34.9923 214.764C34.8483 214.988 34.7123 215.208 34.5843 215.424C34.4563 215.64 34.3483 215.832 34.2603 216H33.1083C33.3883 215.456 33.7203 214.904 34.1043 214.344C34.4963 213.776 34.8843 213.236 35.2683 212.724L33.2043 209.76H34.4643L35.9523 211.944L37.4523 209.76H38.6403L36.6243 212.652C37.0083 213.172 37.4003 213.724 37.8003 214.308C38.2083 214.884 38.5523 215.448 38.8323 216H37.6083ZM43.8164 216C43.7284 215.824 43.6204 215.628 43.4924 215.412C43.3644 215.196 43.2244 214.976 43.0724 214.752C42.9204 214.52 42.7644 214.292 42.6044 214.068C42.4444 213.844 42.2884 213.632 42.1364 213.432C41.9844 213.632 41.8284 213.848 41.6684 214.08C41.5084 214.304 41.3524 214.532 41.2004 214.764C41.0564 214.988 40.9204 215.208 40.7924 215.424C40.6644 215.64 40.5564 215.832 40.4684 216H39.3164C39.5964 215.456 39.9284 214.904 40.3124 214.344C40.7044 213.776 41.0924 213.236 41.4764 212.724L39.4124 209.76H40.6724L42.1604 211.944L43.6604 209.76H44.8484L42.8324 212.652C43.2164 213.172 43.6084 213.724 44.0084 214.308C44.4164 214.884 44.7604 215.448 45.0404 216H43.8164ZM50.0245 216C49.9365 215.824 49.8285 215.628 49.7005 215.412C49.5725 215.196 49.4325 214.976 49.2805 214.752C49.1285 214.52 48.9725 214.292 48.8125 214.068C48.6525 213.844 48.4965 213.632 48.3445 213.432C48.1925 213.632 48.0365 213.848 47.8765 214.08C47.7165 214.304 47.5605 214.532 47.4085 214.764C47.2645 214.988 47.1285 215.208 47.0005 215.424C46.8725 215.64 46.7645 215.832 46.6765 216H45.5245C45.8045 215.456 46.1365 214.904 46.5205 214.344C46.9125 213.776 47.3005 213.236 47.6845 212.724L45.6205 209.76H46.8805L48.3685 211.944L49.8685 209.76H51.0565L49.0405 212.652C49.4245 213.172 49.8165 213.724 50.2165 214.308C50.6245 214.884 50.9685 215.448 51.2485 216H50.0245ZM56.2326 216C56.1446 215.824 56.0366 215.628 55.9086 215.412C55.7806 215.196 55.6406 214.976 55.4886 214.752C55.3366 214.52 55.1806 214.292 55.0206 214.068C54.8606 213.844 54.7046 213.632 54.5526 213.432C54.4006 213.632 54.2446 213.848 54.0846 214.08C53.9246 214.304 53.7686 214.532 53.6166 214.764C53.4726 214.988 53.3366 215.208 53.2086 215.424C53.0806 215.64 52.9726 215.832 52.8846 216H51.7326C52.0126 215.456 52.3446 214.904 52.7286 214.344C53.1206 213.776 53.5086 213.236 53.8926 212.724L51.8286 209.76H53.0886L54.5766 211.944L56.0766 209.76H57.2646L55.2486 212.652C55.6326 213.172 56.0246 213.724 56.4246 214.308C56.8326 214.884 57.1766 215.448 57.4566 216H56.2326ZM62.4407 216C62.3527 215.824 62.2447 215.628 62.1167 215.412C61.9887 215.196 61.8487 214.976 61.6967 214.752C61.5447 214.52 61.3887 214.292 61.2287 214.068C61.0687 213.844 60.9127 213.632 60.7607 213.432C60.6087 213.632 60.4527 213.848 60.2927 214.08C60.1327 214.304 59.9767 214.532 59.8247 214.764C59.6807 214.988 59.5447 215.208 59.4167 215.424C59.2887 215.64 59.1807 215.832 59.0927 216H57.9407C58.2207 215.456 58.5527 214.904 58.9367 214.344C59.3287 213.776 59.7167 213.236 60.1007 212.724L58.0367 209.76H59.2967L60.7847 211.944L62.2847 209.76H63.4727L61.4567 212.652C61.8407 213.172 62.2327 213.724 62.6327 214.308C63.0407 214.884 63.3847 215.448 63.6647 216H62.4407ZM68.6489 216C68.5609 215.824 68.4529 215.628 68.3249 215.412C68.1969 215.196 68.0569 214.976 67.9049 214.752C67.7529 214.52 67.5969 214.292 67.4369 214.068C67.2769 213.844 67.1209 213.632 66.9689 213.432C66.8169 213.632 66.6609 213.848 66.5009 214.08C66.3409 214.304 66.1849 214.532 66.0329 214.764C65.8889 214.988 65.7529 215.208 65.6249 215.424C65.4969 215.64 65.3889 215.832 65.3009 216H64.1489C64.4289 215.456 64.7609 214.904 65.1449 214.344C65.5369 213.776 65.9249 213.236 66.3089 212.724L64.2449 209.76H65.5049L66.9929 211.944L68.4929 209.76H69.6809L67.6649 212.652C68.0489 213.172 68.4409 213.724 68.8409 214.308C69.2489 214.884 69.5929 215.448 69.8729 216H68.6489ZM74.857 216C74.769 215.824 74.661 215.628 74.533 215.412C74.405 215.196 74.265 214.976 74.113 214.752C73.961 214.52 73.805 214.292 73.645 214.068C73.485 213.844 73.329 213.632 73.177 213.432C73.025 213.632 72.869 213.848 72.709 214.08C72.549 214.304 72.393 214.532 72.241 214.764C72.097 214.988 71.961 215.208 71.833 215.424C71.705 215.64 71.597 215.832 71.509 216H70.357C70.637 215.456 70.969 214.904 71.353 214.344C71.745 213.776 72.133 213.236 72.517 212.724L70.453 209.76H71.713L73.201 211.944L74.701 209.76H75.889L73.873 212.652C74.257 213.172 74.649 213.724 75.049 214.308C75.457 214.884 75.801 215.448 76.081 216H74.857ZM81.0651 216C80.9771 215.824 80.8691 215.628 80.7411 215.412C80.6131 215.196 80.4731 214.976 80.3211 214.752C80.1691 214.52 80.0131 214.292 79.8531 214.068C79.6931 213.844 79.5371 213.632 79.3851 213.432C79.2331 213.632 79.0771 213.848 78.9171 214.08C78.7571 214.304 78.6011 214.532 78.4491 214.764C78.3051 214.988 78.1691 215.208 78.0411 215.424C77.9131 215.64 77.8051 215.832 77.7171 216H76.5651C76.8451 215.456 77.1771 214.904 77.5611 214.344C77.9531 213.776 78.3411 213.236 78.7251 212.724L76.6611 209.76H77.9211L79.4091 211.944L80.9091 209.76H82.0971L80.0811 212.652C80.4651 213.172 80.8571 213.724 81.2571 214.308C81.6651 214.884 82.0091 215.448 82.2891 216H81.0651Z" fill="#B6B6B6"/>
</g>
</g>
<defs>
<filter id="filter0_d_1505_25835" x="0" y="0" width="216" height="296" filterUnits="userSpaceOnUse" color-interpolation-filters="sRGB">
<feFlood flood-opacity="0" result="BackgroundImageFix"/>
<feColorMatrix in="SourceAlpha" type="matrix" values="0 0 0 0 0 0 0 0 0 0 0 0 0 0 0 0 0 0 127 0" result="hardAlpha"/>
<feOffset dx="4" dy="4"/>
<feGaussianBlur stdDeviation="8"/>
<feComposite in2="hardAlpha" operator="out"/>
<feColorMatrix type="matrix" values="0 0 0 0 0.311719 0 0 0 0 0.324297 0 0 0 0 0.4375 0 0 0 0.23 0"/>
<feBlend mode="normal" in2="BackgroundImageFix" result="effect1_dropShadow_1505_25835"/>
<feBlend mode="normal" in="SourceGraphic" in2="effect1_dropShadow_1505_25835" result="shape"/>
</filter>
<clipPath id="clip0_1505_25835">
<rect x="12" y="12" width="184" height="264" rx="12.1739" fill="white"/>
</clipPath>
</defs>
</svg>
