<?xml version="1.0" standalone="no"?>
<!DOCTYPE svg PUBLIC "-//W3C//DTD SVG 20010904//EN"
 "http://www.w3.org/TR/2001/REC-SVG-20010904/DTD/svg10.dtd">
<svg version="1.0" xmlns="http://www.w3.org/2000/svg"
 width="100.000000pt" height="100.000000pt" viewBox="0 0 100.000000 100.000000"
 preserveAspectRatio="xMidYMid meet">
<metadata>
Created by potrace 1.14, written by Peter Selinger 2001-2017
</metadata>
<g transform="translate(0.000000,100.000000) scale(0.100000,-0.100000)"
fill="#000000" stroke="none">
<path d="M376 985 c-8 -9 -19 -15 -23 -14 -16 3 -73 -14 -68 -20 2 -4 -12 -13
-32 -20 -19 -7 -43 -20 -53 -30 -9 -9 -31 -28 -48 -42 -17 -15 -29 -29 -26
-32 3 -3 -4 -10 -15 -17 -12 -6 -21 -17 -21 -24 0 -7 -9 -21 -20 -31 -11 -10
-18 -20 -15 -23 3 -3 -2 -14 -12 -24 -13 -14 -13 -18 -2 -18 10 -1 8 -5 -5
-15 -11 -8 -16 -15 -12 -15 5 0 1 -12 -9 -26 -9 -15 -12 -23 -6 -20 6 4 11 0
11 -9 0 -9 -4 -13 -10 -10 -6 4 -9 -34 -7 -105 2 -76 6 -113 15 -119 8 -4 10
-15 6 -26 -5 -13 -4 -16 4 -11 8 5 10 2 6 -8 -3 -9 -1 -16 5 -16 6 0 11 -7 11
-15 0 -29 62 -119 74 -107 4 3 4 -2 0 -12 -6 -15 -4 -17 6 -11 10 6 12 4 7 -8
-4 -11 -1 -17 8 -17 8 0 19 -8 24 -17 6 -10 11 -14 11 -10 0 7 10 0 45 -30 7
-7 18 -13 24 -13 6 0 11 -5 11 -12 0 -6 3 -8 6 -5 4 4 19 0 33 -7 70 -36 100
-43 193 -43 63 -1 96 3 92 9 -4 6 3 5 15 -1 17 -10 21 -9 21 5 0 13 3 14 15 4
12 -10 16 -9 21 3 3 8 13 14 22 13 9 -2 22 3 27 11 6 8 20 15 32 16 12 0 20 4
17 8 -2 4 12 13 31 19 19 6 33 15 30 20 -3 5 4 11 15 15 11 3 20 13 20 21 0 8
5 12 10 9 9 -6 14 8 11 28 -1 5 2 7 6 4 5 -2 16 4 26 15 9 10 14 18 10 18 -3
0 4 11 17 25 13 14 20 25 16 25 -4 0 0 12 8 27 19 37 29 64 30 85 1 9 4 20 9
24 12 13 9 176 -4 168 -8 -5 -9 -2 -1 12 8 14 5 25 -11 48 -11 16 -16 26 -9
22 18 -11 14 10 -5 30 -10 10 -17 19 -16 20 4 7 -22 64 -29 64 -4 0 -8 5 -8
11 0 16 -47 69 -54 62 -3 -4 -6 2 -6 12 0 10 -2 16 -5 13 -3 -3 -22 10 -42 28
-20 19 -41 34 -46 34 -5 0 -22 9 -38 21 -20 14 -29 16 -29 7 -1 -9 -5 -7 -14
5 -7 9 -20 15 -28 12 -9 -4 -18 1 -22 11 -5 13 -9 14 -21 4 -9 -7 -15 -8 -15
-2 0 13 -168 14 -176 1 -3 -5 -11 -9 -17 -9 -7 0 -6 4 3 10 9 6 10 10 3 10 -6
0 -18 -7 -27 -15z"/>
</g>
</svg>
